# xmcd CD database file
#
# Track frame offsets:
#	150
#	12954
#	34905
#	58462
#	77529
#	99861
#	122508
#	141221
#	166449
#	196801
#	200820
#
# Disc length: 3117 seconds
#
# Revision: 0
# Processed by: cddbd v1.5.1PL2 Copyright (c) Steve Scherf et al.
# Submitted via: CDex 1.51
#
DISCID=930c2b0b
DTITLE=DOWN FORCE RECORDS - secret://01 - eye_agate
DYEAR=2002
DGENRE=Techno
TTITLE0=overload
TTITLE1=戦律
TTITLE2=summer lights
TTITLE3=uncontinued
TTITLE4=lost generation
TTITLE5=lights
TTITLE6=division of the heart
TTITLE7=the disappears sweet heart
TTITLE8=sweetness planet
TTITLE9=everlasting
TTITLE10=summer lights (Frozen Sunlight Mix)
EXTD=YEAR: 2002
EXTT0=
EXTT1=
EXTT2=
EXTT3=
EXTT4=
EXTT5=
EXTT6=
EXTT7=
EXTT8=
EXTT9=
EXTT10=
PLAYORDER=
